<?xml version="1.0" encoding="UTF-8" standalone="no" ?>
<!DOCTYPE svg PUBLIC "-//W3C//DTD SVG 1.1//EN" "http://www.w3.org/Graphics/SVG/1.1/DTD/svg11.dtd">
<svg xmlns="http://www.w3.org/2000/svg" xmlns:xlink="http://www.w3.org/1999/xlink" version="1.1" width="18px" height="18px" viewBox="0 0 1080 1080" xml:space="preserve">
<desc>Created with Fabric.js 5.2.4</desc>
<defs>
</defs>
<g transform="matrix(1 0 0 1 540 540)" id="c52b504c-275a-48da-9e7b-e5187c779ff1"  >
</g>
<g transform="matrix(1 0 0 1 540 540)" id="e14a4b76-fd4f-46d8-bc23-404f1728de1b"  >
<rect style="stroke: none; stroke-width: 1; stroke-dasharray: none; stroke-linecap: butt; stroke-dashoffset: 0; stroke-linejoin: miter; stroke-miterlimit: 4; fill: rgb(255,255,255); fill-rule: nonzero; opacity: 1; visibility: hidden;" vector-effect="non-scaling-stroke"  x="-540" y="-540" rx="0" ry="0" width="1080" height="1080" />
</g>
<g transform="matrix(11.45 0 0 11.45 512.1 567.81)" id="e4f4c2d2-b26c-4637-968d-96c63e3cbcca"  >
<circle style="stroke: rgb(0,0,0); stroke-width: 0; stroke-dasharray: none; stroke-linecap: butt; stroke-dashoffset: 0; stroke-linejoin: miter; stroke-miterlimit: 4; fill: rgb(229,229,229); fill-opacity: 0.6; fill-rule: nonzero; opacity: 1;" vector-effect="non-scaling-stroke"  cx="0" cy="0" r="35" />
</g>
<g transform="matrix(1 0 0 1 540 540)"  >
<g style="" vector-effect="non-scaling-stroke"   >
		<g transform="matrix(33.33 0 0 33.33 -0.03 -0.03)"  >
<path style="stroke: none; stroke-width: 2; stroke-dasharray: none; stroke-linecap: butt; stroke-dashoffset: 0; stroke-linejoin: miter; stroke-miterlimit: 4; fill: rgb(111,207,151); fill-rule: nonzero; opacity: 1;" vector-effect="non-scaling-stroke"  transform=" translate(-11.85, -12.15)" d="M 20.41 7.83 L 7.24 21 L 3 21 L 3 16.76 L 16.17 3.59 C 16.357766599905556 3.400687349176903 16.613362463629443 3.2942016756583294 16.880000000000003 3.2942016756583294 C 17.146637536370562 3.2942016756583294 17.402233400094445 3.400687349176903 17.590000000000003 3.59 L 20.410000000000004 6.41 C 20.5993126508231 6.597766599905556 20.70579832434167 6.853362463629441 20.70579832434167 7.12 C 20.70579832434167 7.386637536370558 20.599312650823098 7.642233400094444 20.41 7.83 Z" stroke-linecap="round" />
</g>
		<g transform="matrix(33.33 0 0 33.33 -0.03 -0.03)"  >
<path style="stroke: rgb(0,0,0); stroke-width: 2; stroke-dasharray: none; stroke-linecap: round; stroke-dashoffset: 0; stroke-linejoin: round; stroke-miterlimit: 4; fill: rgb(111,207,151); fill-rule: nonzero; opacity: 1;" vector-effect="non-scaling-stroke"  transform=" translate(-11.85, -12.15)" d="M 20.41 7.83 L 7.24 21 L 3 21 L 3 16.76 L 16.17 3.59 C 16.357766599905556 3.400687349176903 16.613362463629443 3.2942016756583294 16.880000000000003 3.2942016756583294 C 17.146637536370562 3.2942016756583294 17.402233400094445 3.400687349176903 17.590000000000003 3.59 L 20.410000000000004 6.41 C 20.5993126508231 6.597766599905556 20.70579832434167 6.853362463629441 20.70579832434167 7.12 C 20.70579832434167 7.386637536370558 20.599312650823098 7.642233400094444 20.41 7.83 Z" stroke-linecap="round" />
</g>
</g>
</g>
<g transform="matrix(0 0 0 0 0 0)"  >
<g style=""   >
</g>
</g>
<g transform="matrix(NaN NaN NaN NaN 0 0)"  >
<g style=""   >
</g>
</g>
</svg>